<svg id="SvgjsSvg1017" width="288" height="288" xmlns="http://www.w3.org/2000/svg" version="1.1" xmlns:xlink="http://www.w3.org/1999/xlink" xmlns:svgjs="http://svgjs.com/svgjs"><defs id="SvgjsDefs1018"></defs><g id="SvgjsG1019"><svg xmlns="http://www.w3.org/2000/svg" viewBox="0 -960 960 960" width="288" height="288"><path d="m527.521-74.39-69-69.001 142-142-315.13-315.13-142 142-69-69 56-56.87-56-56 85.13-85.13-56-56.87 74.088-74.088 56.87 56 85.13-85.13 56 56 56.87-56 69 69-142 142 315.13 315.13 142-142 69 69-56 56.87 56 56-85.13 85.13 56 56.87-74.088 74.088-56.87-56-85.13 85.13-56-56-56.87 56Z" fill="#ffffff" class="color000 svgShape"></path></svg></g></svg>