<?xml version="1.0" encoding="UTF-8" standalone="no"?><!DOCTYPE svg PUBLIC "-//W3C//DTD SVG 1.1//EN" "http://www.w3.org/Graphics/SVG/1.1/DTD/svg11.dtd"><svg width="100%" height="100%" viewBox="0 0 122 85" version="1.1" xmlns="http://www.w3.org/2000/svg" xmlns:xlink="http://www.w3.org/1999/xlink" xml:space="preserve" xmlns:serif="http://www.serif.com/" style="fill-rule:evenodd;clip-rule:evenodd;stroke-linejoin:round;stroke-miterlimit:2;"><path id="youtube-logo-symbol-white" d="M118.9,13.3c2.6,9.5 2.5,29.3 2.5,29.3c0,0 0,19.7 -2.5,29.2c-1.4,5.2 -5.5,9.3 -10.7,10.7c-9.5,2.5 -47.5,2.5 -47.5,2.5c0,0 -37.9,0 -47.5,-2.6c-5.2,-1.4 -9.3,-5.5 -10.7,-10.7c-2.5,-9.4 -2.5,-29.2 -2.5,-29.2c0,0 0,-19.7 2.5,-29.2c1.4,-5.2 5.6,-9.4 10.7,-10.8c9.5,-2.5 47.5,-2.5 47.5,-2.5c0,0 38,0 47.5,2.6c5.2,1.4 9.3,5.5 10.7,10.7Zm-70.3,47.4l31.6,-18.2l-31.6,-18.2l0,36.4Z" style="fill:#fff;fill-rule:nonzero;"/></svg>